<svg width="191" height="230" viewBox="0 0 191 230" fill="none" xmlns="http://www.w3.org/2000/svg">
<path fill-rule="evenodd" clip-rule="evenodd" d="M3.01314 47.6483C-1.00491 50.4321 -1.00491 56.3724 3.01314 59.1562L69.9715 105.546C74.614 108.763 80.958 105.44 80.958 99.7924V81.4022L127.708 81.4022C127.708 81.4022 130.708 81.4022 132.708 83.4022C134.708 85.4022 134.708 88.4022 134.708 88.4022V223.402C134.708 226.716 137.394 229.402 140.708 229.402H184.708C188.022 229.402 190.708 226.716 190.708 223.402V80.4022C190.708 50.0266 166.084 25.4022 135.708 25.4022H134.708H80.958V7.0121C80.958 1.36436 74.614 -1.95823 69.9715 1.25813L3.01314 47.6483Z" fill="black"/>
</svg>
