<svg width="191" height="230" viewBox="0 0 191 230" fill="none" xmlns="http://www.w3.org/2000/svg">
<path fill-rule="evenodd" clip-rule="evenodd" d="M187.695 47.6483C191.713 50.4321 191.713 56.3724 187.695 59.1562L120.736 105.546C116.094 108.763 109.75 105.44 109.75 99.7924V81.4022H63C63 81.4022 60 81.4022 58 83.4022C56 85.4022 56 88.4022 56 88.4022V223.402C56 226.716 53.3137 229.402 50 229.402H6C2.68629 229.402 0 226.716 0 223.402V80.4022C0 50.0266 24.6243 25.4022 55 25.4022H56H109.75V7.0121C109.75 1.36436 116.094 -1.95823 120.736 1.25813L187.695 47.6483Z" fill="black"/>
</svg>
