<svg width="172" height="179" viewBox="0 0 172 179" fill="none" xmlns="http://www.w3.org/2000/svg">
<path fill-rule="evenodd" clip-rule="evenodd" d="M90.9497 2.05025C88.2161 -0.683417 83.7839 -0.683417 81.0502 2.05025C78.3166 4.78392 78.3166 9.21608 81.0502 11.9497L88.633 19.5325C72.8924 18.9115 56.8778 23.4295 43.3742 31.8007C24.9096 43.2473 10.549 62.2774 8.038 86.2711C7.63561 90.1161 10.4264 93.5593 14.2714 93.9617C18.1164 94.3641 21.5596 91.5733 21.962 87.7283C23.9509 68.7227 35.3403 53.253 50.7507 43.6997C63.3814 35.8697 78.3191 32.2669 92.2587 33.8418L81.0502 45.0503C78.3166 47.7839 78.3166 52.2161 81.0502 54.9497C83.7839 57.6834 88.2161 57.6834 90.9497 54.9497L112.45 33.4497C115.183 30.7161 115.183 26.2839 112.45 23.5503L90.9497 2.05025ZM166.407 150.812C170.141 149.811 172.357 145.973 171.357 142.239C170.356 138.504 166.518 136.288 162.783 137.289L152.425 140.064C160.833 126.743 164.928 110.615 164.43 94.7351C163.749 73.021 154.449 51.0693 134.925 36.8979C131.797 34.6269 127.419 35.3222 125.148 38.4508C122.877 41.5795 123.573 45.9568 126.701 48.2278C142.166 59.4531 149.869 77.0514 150.437 95.1739C150.903 110.027 146.554 124.765 138.22 136.05L134.118 120.739C133.117 117.004 129.279 114.788 125.544 115.789C121.81 116.79 119.594 120.628 120.595 124.362L128.464 153.732C129.465 157.466 133.303 159.682 137.037 158.681L166.407 150.812ZM5.50055 150.943C1.76629 149.943 -0.449791 146.104 0.550804 142.37L8.42035 113.001C9.42094 109.266 13.2593 107.05 16.9936 108.051L46.3631 115.92C50.0974 116.921 52.3134 120.759 51.3129 124.494C50.3123 128.228 46.4739 130.444 42.7396 129.443L27.4287 125.341C33.0345 138.2 43.6235 149.335 56.7198 156.359C72.6984 164.928 91.7903 167.057 109.244 159.276C112.775 157.702 116.914 159.289 118.488 162.82C120.062 166.351 118.475 170.489 114.944 172.063C92.9094 181.886 69.2486 178.964 50.1032 168.697C36.1017 161.188 24.1817 149.578 16.8493 135.635L14.0738 145.994C13.0732 149.728 9.23481 151.944 5.50055 150.943Z" fill="black"/>
<path fill-rule="evenodd" clip-rule="evenodd" d="M90.9497 2.05025C88.2161 -0.683417 83.7839 -0.683417 81.0502 2.05025C78.3166 4.78392 78.3166 9.21608 81.0502 11.9497L88.633 19.5325C72.8924 18.9115 56.8778 23.4295 43.3742 31.8007C24.9096 43.2473 10.549 62.2774 8.038 86.2711C7.63561 90.1161 10.4264 93.5593 14.2714 93.9617C18.1164 94.3641 21.5596 91.5733 21.962 87.7283C23.9509 68.7227 35.3403 53.253 50.7507 43.6997C63.3814 35.8697 78.3191 32.2669 92.2587 33.8418L81.0502 45.0503C78.3166 47.7839 78.3166 52.2161 81.0502 54.9497C83.7839 57.6834 88.2161 57.6834 90.9497 54.9497L112.45 33.4497C115.183 30.7161 115.183 26.2839 112.45 23.5503L90.9497 2.05025ZM166.407 150.812C170.141 149.811 172.357 145.973 171.357 142.239C170.356 138.504 166.518 136.288 162.783 137.289L152.425 140.064C160.833 126.743 164.928 110.615 164.43 94.7351C163.749 73.021 154.449 51.0693 134.925 36.8979C131.797 34.6269 127.419 35.3222 125.148 38.4508C122.877 41.5795 123.573 45.9568 126.701 48.2278C142.166 59.4531 149.869 77.0514 150.437 95.1739C150.903 110.027 146.554 124.765 138.22 136.05L134.118 120.739C133.117 117.004 129.279 114.788 125.544 115.789C121.81 116.79 119.594 120.628 120.595 124.362L128.464 153.732C129.465 157.466 133.303 159.682 137.037 158.681L166.407 150.812ZM5.50055 150.943C1.76629 149.943 -0.449791 146.104 0.550804 142.37L8.42035 113.001C9.42094 109.266 13.2593 107.05 16.9936 108.051L46.3631 115.92C50.0974 116.921 52.3134 120.759 51.3129 124.494C50.3123 128.228 46.4739 130.444 42.7396 129.443L27.4287 125.341C33.0345 138.2 43.6235 149.335 56.7198 156.359C72.6984 164.928 91.7903 167.057 109.244 159.276C112.775 157.702 116.914 159.289 118.488 162.82C120.062 166.351 118.475 170.489 114.944 172.063C92.9094 181.886 69.2486 178.964 50.1032 168.697C36.1017 161.188 24.1817 149.578 16.8493 135.635L14.0738 145.994C13.0732 149.728 9.23481 151.944 5.50055 150.943Z" fill="black"/>
</svg>
