<svg width="114" height="114" viewBox="0 0 114 114" fill="none" xmlns="http://www.w3.org/2000/svg">
<mask id="path-1-inside-1_761_2767" fill="white">
<path d="M114 57C114 45.7265 110.657 34.7061 104.394 25.3325C98.1305 15.9589 89.2283 8.65306 78.813 4.33887C68.3976 0.0246715 56.9368 -1.10412 45.8799 1.09524C34.8229 3.2946 24.6665 8.72332 16.6949 16.6949C8.72332 24.6665 3.2946 34.8229 1.09524 45.8799C-1.10412 56.9368 0.0246716 68.3976 4.33887 78.813C8.65306 89.2283 15.9589 98.1305 25.3325 104.394C34.7061 110.657 45.7265 114 57 114L57 57H114Z"/>
</mask>
<path d="M114 57C114 45.7265 110.657 34.7061 104.394 25.3325C98.1305 15.9589 89.2283 8.65306 78.813 4.33887C68.3976 0.0246715 56.9368 -1.10412 45.8799 1.09524C34.8229 3.2946 24.6665 8.72332 16.6949 16.6949C8.72332 24.6665 3.2946 34.8229 1.09524 45.8799C-1.10412 56.9368 0.0246716 68.3976 4.33887 78.813C8.65306 89.2283 15.9589 98.1305 25.3325 104.394C34.7061 110.657 45.7265 114 57 114L57 57H114Z" fill="#2E52AD" stroke="white" stroke-width="10" mask="url(#path-1-inside-1_761_2767)"/>
<path d="M58.9673 58.9673H111.5V105C111.5 108.59 108.59 111.5 105 111.5H58.9673V58.9673Z" fill="#2E52AD" stroke="white" stroke-width="5"/>
<circle cx="56.4672" cy="56.4672" r="9.58879" fill="white"/>
</svg>
