<svg width="158" height="53" viewBox="0 0 158 53" fill="none" xmlns="http://www.w3.org/2000/svg">
<path d="M29.4284 19.3562C29.3006 18.0671 28.752 17.0657 27.7825 16.3519C26.813 15.6381 25.4973 15.2812 23.8354 15.2812C22.7061 15.2812 21.7527 15.441 20.975 15.7606C20.1973 16.0696 19.6007 16.501 19.1852 17.055C18.7804 17.609 18.5779 18.2375 18.5779 18.9407C18.5566 19.5266 18.6792 20.038 18.9455 20.4748C19.2225 20.9116 19.6007 21.2898 20.0801 21.6094C20.5595 21.9183 21.1135 22.19 21.742 22.4243C22.3706 22.6481 23.0417 22.8398 23.7555 22.9996L26.6958 23.7027C28.1234 24.0223 29.4338 24.4485 30.627 24.9812C31.8201 25.5138 32.8535 26.169 33.7271 26.9467C34.6007 27.7244 35.2772 28.6406 35.7566 29.6953C36.2466 30.75 36.497 31.9591 36.5076 33.3228C36.497 35.3256 35.9856 37.0621 34.9735 38.5323C33.9721 39.9918 32.5233 41.1264 30.627 41.9361C28.7413 42.7351 26.4668 43.1346 23.8034 43.1346C21.1614 43.1346 18.8603 42.7297 16.9 41.9201C14.9505 41.1104 13.427 39.9119 12.3297 38.3246C11.2431 36.7265 10.6731 34.7503 10.6199 32.3959H17.3155C17.3901 33.4932 17.7044 34.4094 18.2583 35.1445C18.823 35.8689 19.574 36.4176 20.5115 36.7905C21.4597 37.1527 22.5304 37.3338 23.7235 37.3338C24.8954 37.3338 25.9128 37.1633 26.7757 36.8224C27.6493 36.4815 28.3258 36.0074 28.8052 35.4002C29.2846 34.7929 29.5243 34.0951 29.5243 33.3068C29.5243 32.5717 29.3059 31.9538 28.8691 31.4531C28.443 30.9524 27.8145 30.5263 26.9835 30.1747C26.1632 29.8231 25.1564 29.5035 23.9632 29.2159L20.3997 28.321C17.6404 27.6498 15.4618 26.6005 13.8638 25.1729C12.2658 23.7454 11.4721 21.8224 11.4828 19.4041C11.4721 17.4226 11.9995 15.6914 13.0648 14.2106C14.1408 12.7297 15.6163 11.5738 17.4913 10.7429C19.3663 9.91191 21.497 9.49643 23.8833 9.49643C26.3123 9.49643 28.4324 9.91191 30.2434 10.7429C32.0652 11.5738 33.4821 12.7297 34.4941 14.2106C35.5062 15.6914 36.0282 17.4066 36.0602 19.3562H29.4284ZM41.034 42.6711V18.1257H47.8415V42.6711H41.034ZM44.4537 14.9616C43.4417 14.9616 42.5734 14.626 41.849 13.9549C41.1352 13.2731 40.7783 12.4581 40.7783 11.5099C40.7783 10.5724 41.1352 9.76809 41.849 9.09692C42.5734 8.4151 43.4417 8.07419 44.4537 8.07419C45.4658 8.07419 46.3287 8.4151 47.0425 9.09692C47.767 9.76809 48.1292 10.5724 48.1292 11.5099C48.1292 12.4581 47.767 13.2731 47.0425 13.9549C46.3287 14.626 45.4658 14.9616 44.4537 14.9616ZM66.3505 18.1257V23.2393H51.5689V18.1257H66.3505ZM54.9247 12.245H61.7322V35.1285C61.7322 35.7571 61.8281 36.2471 62.0199 36.5987C62.2116 36.9396 62.478 37.1793 62.8189 37.3178C63.1705 37.4563 63.5753 37.5255 64.0334 37.5255C64.353 37.5255 64.6726 37.4989 64.9922 37.4456C65.3118 37.3817 65.5568 37.3338 65.7273 37.3018L66.7979 42.3675C66.457 42.4741 65.9776 42.5966 65.3597 42.7351C64.7418 42.8842 63.9908 42.9748 63.1065 43.0067C61.4659 43.0706 60.0277 42.8523 58.7919 42.3515C57.5668 41.8508 56.6133 41.0731 55.9315 40.0184C55.2496 38.9638 54.9141 37.6321 54.9247 36.0234V12.245ZM81.7074 43.1505C79.1825 43.1505 77.0092 42.6392 75.1875 41.6165C73.3764 40.5831 71.9808 39.1236 71.0007 37.2379C70.0206 35.3416 69.5305 33.0991 69.5305 30.5103C69.5305 27.9854 70.0206 25.7695 71.0007 23.8625C71.9808 21.9556 73.3604 20.4694 75.1396 19.4041C76.9293 18.3388 79.0281 17.8061 81.4357 17.8061C83.055 17.8061 84.5625 18.0671 85.9581 18.5891C87.3643 19.1005 88.5895 19.8728 89.6335 20.9062C90.6882 21.9396 91.5085 23.2393 92.0945 24.8054C92.6804 26.3608 92.9734 28.1825 92.9734 30.2706V32.1402H72.2472V27.9215H86.5653C86.5653 26.9414 86.3523 26.0731 85.9261 25.3167C85.5 24.5603 84.9087 23.9691 84.1523 23.5429C83.4066 23.1062 82.5384 22.8878 81.5476 22.8878C80.5142 22.8878 79.598 23.1275 78.799 23.6069C78.0107 24.0756 77.3928 24.7095 76.9453 25.5085C76.4979 26.2969 76.2688 27.1758 76.2582 28.1452V32.1562C76.2582 33.3707 76.4819 34.4201 76.9293 35.3043C77.3874 36.1885 78.032 36.8704 78.8629 37.3498C79.6939 37.8292 80.6793 38.0689 81.8192 38.0689C82.5756 38.0689 83.2681 37.9623 83.8967 37.7493C84.5252 37.5362 85.0632 37.2166 85.5107 36.7905C85.9581 36.3643 86.299 35.8423 86.5334 35.2244L92.8295 35.6399C92.5099 37.1527 91.8548 38.4737 90.864 39.603C89.8839 40.7216 88.6161 41.5951 87.0607 42.2237C85.516 42.8416 83.7315 43.1505 81.7074 43.1505Z" fill="black"/>
<path d="M99.4293 42.6711V9.94387H117.695V11.7976H101.427V25.3647H116.176V27.2184H101.427V42.6711H99.4293ZM125.205 42.6711V18.1257H127.139V42.6711H125.205ZM126.18 13.7791C125.754 13.7791 125.381 13.6299 125.061 13.3317C124.752 13.0334 124.598 12.6711 124.598 12.245C124.598 11.8189 124.752 11.4567 125.061 11.1584C125.37 10.8601 125.743 10.7109 126.18 10.7109C126.606 10.7109 126.974 10.8601 127.283 11.1584C127.602 11.4567 127.762 11.8189 127.762 12.245C127.762 12.6711 127.608 13.0334 127.299 13.3317C126.99 13.6299 126.617 13.7791 126.18 13.7791ZM143.982 18.1257V19.8675H133.259V18.1257H143.982ZM136.887 12.245H138.82V36.8704C138.82 37.8718 139.012 38.6921 139.396 39.3313C139.79 39.9598 140.301 40.4286 140.93 40.7375C141.569 41.0358 142.251 41.185 142.975 41.185C143.327 41.185 143.63 41.1584 143.886 41.1051C144.152 41.0518 144.403 40.9826 144.637 40.8973L145.116 42.6711C144.818 42.7777 144.488 42.8682 144.126 42.9428C143.763 43.028 143.337 43.0706 142.847 43.0706C141.825 43.0706 140.855 42.8416 139.939 42.3835C139.033 41.9254 138.298 41.2596 137.734 40.386C137.169 39.5124 136.887 38.4577 136.887 37.2219V12.245Z" fill="#686868"/>
<line x1="0.5" y1="2.18557e-08" x2="0.499999" y2="16.9765" stroke="black"/>
<line x1="20.0967" y1="0.5" x2="6.29425e-05" y2="0.5" stroke="black"/>
<line x1="156.597" y1="52.2029" x2="156.597" y2="35.2263" stroke="black"/>
<line x1="137" y1="51.7029" x2="157.097" y2="51.7029" stroke="black"/>
<line x1="-4.01681e-09" y1="51.7029" x2="20.0966" y2="51.7029" stroke="black"/>
<line x1="0.5" y1="35.2263" x2="0.500001" y2="52.2029" stroke="black"/>
<line x1="157.097" y1="0.5" x2="137" y2="0.499999" stroke="black"/>
<line x1="156.597" y1="16.9763" x2="156.597" y2="-0.000221247" stroke="black"/>
</svg>
