<svg width="1560" height="2162" viewBox="0 0 1560 2162" fill="none" xmlns="http://www.w3.org/2000/svg">
<path d="M787.5 1103L835 1192.64L806.5 1192.64L806.5 1287L768.5 1287L768.5 1192.64L740 1192.64L787.5 1103Z" stroke="#00FFFF" stroke-width="5"/>
<path d="M160.187 636.844L93.8774 574.526L88.614 555.289L94.3297 525.073L109.074 489.912L123.047 475.938M160.187 636.844L174.888 651.544M160.187 636.844L169.17 627.861M123.047 475.938L129.172 482.064M123.047 475.938L136.023 462.963L171.184 448.219L201.4 442.503L220.637 447.767L282.955 514.077M129.172 482.064L117.218 496.06L112.296 507.107L112.341 511.145M129.172 482.064L142.171 471.107L153.218 466.185L157.256 466.23M162.954 613.66L158.871 609.577L142.469 587.186L123.889 550.64M162.954 613.66L185.39 634.1L221.029 661.754L237.317 674.049L238.388 675.02M162.954 613.66L170.734 587.504L182.621 567.451L197.547 548.442L213.562 536.51L233.615 524.624L259.771 516.843M368.871 793.626L364.787 789.542L348.476 775.228L339.289 766.04L323.001 753.744L296.458 727.202M368.871 793.626L373.952 796.711L383.117 803.88L395.276 808.054L411.405 806.217L425.447 798.3L437.47 790.361L444.411 779.336L452.328 765.295L454.165 749.166L449.99 737.006L442.822 727.841L439.736 722.76M368.871 793.626L367.895 796.643L363.88 798.616M238.388 675.02L258.732 693.468L281.168 713.908L295.438 726.181L296.458 727.202M238.388 675.02L240.289 669.036L248.251 659.032L260.183 643.017L269.143 632.015L275.154 628.045L280.122 621.036L289.128 614.072L305.143 602.14L315.147 594.178L321.131 592.277M296.458 727.202L298.432 723.187L334.364 687.255L369.298 652.321L373.313 650.348M316.378 793.034L360.274 836.931L367.375 840.039L377.515 844.191L390.695 849.386L402.832 851.541L409.864 848.592L421.932 844.691L434.976 837.772L450.016 828.858L464.012 816.903L474.968 803.905L483.883 788.865L490.802 775.822L494.703 763.753L497.652 756.721L495.497 744.585L490.301 731.404L486.15 721.264L483.042 714.164L439.145 670.267M316.378 793.034L320.416 793.08L323.478 796.142L328.514 795.19L330.488 791.175L333.459 786.161M316.378 793.034L185.709 662.365M333.459 786.161L337.52 788.226L343.6 790.313L348.681 793.398L355.782 796.506L363.88 798.616M333.459 786.161L326.313 779.015L315.129 771.824L298.819 757.509L280.466 741.153L266.197 728.88L245.802 710.482L188.635 653.314L186.57 649.253L190.563 645.261L198.684 649.39L236.387 681.104L250.657 693.377L266.967 707.692L287.362 726.09L299.589 736.321L312.86 749.593L332.234 766.97L363.88 798.616M363.88 798.616L381.235 815.971L385.341 822.073L388.426 827.155L389.515 834.232L388.563 839.268M388.563 839.268L375.36 832.054L371.322 832.009L376.449 839.132L382.551 843.238L386.612 845.302L398.726 845.439L407.777 842.513L417.826 838.589L426.401 833.19M388.563 839.268L395.64 840.357L399.678 840.403L407.731 838.475L416.783 835.549L426.401 833.19M458.908 811.799L445.91 822.755L428.851 831.647L426.401 833.19M458.908 811.799L457.887 810.778M458.908 811.799L468.866 799.799L477.758 782.74L479.301 780.29M185.709 662.365L174.888 651.544M185.709 662.365L181.807 674.433L176.748 673.367L171.599 664.225L174.502 653.155L174.888 651.544M185.709 662.365L186.661 657.329L178.494 649.162M174.888 651.544L176.43 645.102M176.43 645.102L177.36 638.047M176.43 645.102L178.494 649.162M177.36 638.047L182.464 643.151L185.504 644.195L184.574 651.25L178.494 649.162M177.36 638.047L169.17 627.861M169.17 627.861L158.985 619.671M158.985 619.671L155.854 610.552L145.645 600.343L137.41 586.12L127.133 569.854L121.938 556.674L120.872 551.615L123.889 550.64M158.985 619.671L154.346 619.025L140.655 605.334L131.444 594.127L119.171 579.858L117.095 574.788M123.889 550.64L119.76 542.519L112.455 521.24L112.341 511.145M106.421 523.191L106.512 531.267L108.713 547.441L111.843 556.56L115.02 569.718L117.095 574.788M106.421 523.191L109.37 516.158L111.388 516.181L112.341 511.145M106.421 523.191L101.385 524.143L97.4377 532.174L95.5097 540.227L95.6462 552.341L96.7125 557.399L99.7978 562.481L104.925 569.604L111.027 573.71L117.095 574.788M282.955 514.077L297.655 528.777M282.955 514.077L273.972 523.06M259.771 516.843L255.687 512.76L233.297 496.358L196.751 477.778M259.771 516.843L280.21 539.279L307.864 574.918L320.16 591.206L321.131 592.277M439.736 722.76L435.653 718.677L421.338 702.366L412.151 693.178L399.855 676.89L373.313 650.348M439.736 722.76L442.753 721.785L444.727 717.769M321.131 592.277L339.579 612.622L360.019 635.058L372.292 649.327L373.313 650.348M439.145 670.267L439.191 674.305L442.253 677.367L441.3 682.404L437.285 684.377L432.272 687.349M439.145 670.267L308.476 539.598M432.272 687.349L434.336 691.409L436.424 697.489L439.509 702.57L442.617 709.671L444.727 717.769M432.272 687.349L425.126 680.203L417.935 669.019L403.62 652.708L387.264 634.355L374.991 620.086L356.592 599.692L299.425 542.524L295.364 540.46L291.372 544.452L295.501 552.573L327.215 590.277L339.488 604.546L353.803 620.857L372.201 641.251L382.432 653.478L395.703 666.75L413.08 686.123L444.727 717.769M444.727 717.769L462.081 735.124L468.184 739.23L473.265 742.315L480.343 743.404L485.379 742.452M485.379 742.452L478.165 729.249L478.119 725.211L485.243 730.338L489.349 736.44L491.413 740.501L491.55 752.615L488.624 761.666L484.699 771.715L479.301 780.29M485.379 742.452L486.468 749.53L486.514 753.568L484.586 761.621L481.66 770.672L479.301 780.29M308.476 539.598L297.655 528.777M308.476 539.598L320.544 535.696L319.478 530.638L310.336 525.488L299.265 528.391L297.655 528.777M308.476 539.598L303.44 540.551L295.273 532.384M297.655 528.777L291.212 530.319M291.212 530.319L284.157 531.249M291.212 530.319L295.273 532.384M284.157 531.249L289.262 536.353L290.305 539.393L297.36 538.463L295.273 532.384M284.157 531.249L273.972 523.06M273.972 523.06L265.782 512.874M265.782 512.874L256.663 509.743L246.454 499.534L232.23 491.299L215.965 481.023L202.785 475.827L197.726 474.761L196.751 477.778M265.782 512.874L265.136 508.235L251.445 494.544L240.238 485.334L225.969 473.061L220.899 470.985M196.751 477.778L188.629 473.649L167.351 466.344L157.256 466.23M169.301 460.31L177.377 460.401L193.552 462.602L202.671 465.733L215.829 468.909L220.899 470.985M169.301 460.31L162.269 463.259L162.292 465.278L157.256 466.23M169.301 460.31L170.254 455.274L178.284 451.327L186.338 449.399L198.451 449.535L203.51 450.602L208.592 453.687L215.715 458.814L219.821 464.916L220.899 470.985" stroke="#00FFFF" stroke-width="5"/>
<path d="M575 381.436L198.051 4L19 183.282L575 740" stroke="#00FFFF" stroke-width="5"/>
<path d="M569 735.436L192.051 358L13 537.282L569 1094" stroke="#00FFFF" stroke-width="5"/>
<path d="M566 1094.44L188.373 717L9 896.282L566 1453" stroke="#00FFFF" stroke-width="5"/>
<path d="M560 1448.44L183.051 1071L4 1250.28L560 1807" stroke="#00FFFF" stroke-width="5"/>
<path d="M183.051 1424L4 1603.28L560 2160" stroke="#00FFFF" stroke-width="5"/>
<path d="M1407.31 1349.34L1473.62 1287.02L1478.89 1267.78L1473.17 1237.57L1458.43 1202.41L1444.45 1188.43M1407.31 1349.34L1392.61 1364.04M1407.31 1349.34L1398.33 1340.36M1444.45 1188.43L1438.33 1194.56M1444.45 1188.43L1431.48 1175.46L1396.32 1160.71L1366.1 1155L1346.86 1160.26L1284.55 1226.57M1438.33 1194.56L1450.28 1208.55L1455.2 1219.6L1455.16 1223.64M1438.33 1194.56L1425.33 1183.6L1414.28 1178.68L1410.24 1178.72M1404.55 1326.15L1408.63 1322.07L1425.03 1299.68L1443.61 1263.13M1404.55 1326.15L1382.11 1346.59L1346.47 1374.25L1330.18 1386.54L1329.11 1387.51M1404.55 1326.15L1396.77 1300L1384.88 1279.95L1369.95 1260.94L1353.94 1249L1333.88 1237.12L1307.73 1229.34M1198.63 1506.12L1202.71 1502.04L1219.02 1487.72L1228.21 1478.53L1244.5 1466.24L1271.04 1439.7M1198.63 1506.12L1193.55 1509.21L1184.38 1516.37L1172.22 1520.55L1156.09 1518.71L1142.05 1510.79L1130.03 1502.86L1123.09 1491.83L1115.17 1477.79L1113.34 1461.66L1117.51 1449.5L1124.68 1440.34L1127.76 1435.25M1198.63 1506.12L1199.6 1509.14L1203.62 1511.11M1329.11 1387.51L1308.77 1405.96L1286.33 1426.4L1272.06 1438.68L1271.04 1439.7M1329.11 1387.51L1327.21 1381.53L1319.25 1371.53L1307.32 1355.51L1298.36 1344.51L1292.35 1340.54L1287.38 1333.53L1278.37 1326.57L1262.36 1314.63L1252.35 1306.67L1246.37 1304.77M1271.04 1439.7L1269.07 1435.68L1233.14 1399.75L1198.2 1364.82L1194.19 1362.84M1251.12 1505.53L1207.23 1549.43L1200.13 1552.53L1189.98 1556.68L1176.8 1561.88L1164.67 1564.04L1157.64 1561.09L1145.57 1557.19L1132.52 1550.27L1117.48 1541.35L1103.49 1529.4L1092.53 1516.4L1083.62 1501.36L1076.7 1488.32L1072.8 1476.25L1069.85 1469.22L1072 1457.08L1077.2 1443.9L1081.35 1433.76L1084.46 1426.66L1128.35 1382.76M1251.12 1505.53L1247.08 1505.57L1244.02 1508.64L1238.99 1507.68L1237.01 1503.67L1234.04 1498.66M1251.12 1505.53L1381.79 1374.86M1234.04 1498.66L1229.98 1500.72L1223.9 1502.81L1218.82 1505.89L1211.72 1509L1203.62 1511.11M1234.04 1498.66L1241.19 1491.51L1252.37 1484.32L1268.68 1470L1287.03 1453.65L1301.3 1441.37L1321.7 1422.98L1378.87 1365.81L1380.93 1361.75L1376.94 1357.75L1368.82 1361.88L1331.11 1393.6L1316.84 1405.87L1300.53 1420.19L1280.14 1438.58L1267.91 1448.82L1254.64 1462.09L1235.27 1479.46L1203.62 1511.11M1203.62 1511.11L1186.27 1528.46L1182.16 1534.57L1179.07 1539.65L1177.98 1546.73L1178.94 1551.76M1178.94 1551.76L1192.14 1544.55L1196.18 1544.5L1191.05 1551.63L1184.95 1555.73L1180.89 1557.8L1168.77 1557.93L1159.72 1555.01L1149.67 1551.08L1141.1 1545.68M1178.94 1551.76L1171.86 1552.85L1167.82 1552.9L1159.77 1550.97L1150.72 1548.04L1141.1 1545.68M1108.59 1524.29L1121.59 1535.25L1138.65 1544.14L1141.1 1545.68M1108.59 1524.29L1109.61 1523.27M1108.59 1524.29L1098.63 1512.29L1089.74 1495.23L1088.2 1492.78M1381.79 1374.86L1392.61 1364.04M1381.79 1374.86L1385.69 1386.93L1390.75 1385.86L1395.9 1376.72L1393 1365.65L1392.61 1364.04M1381.79 1374.86L1380.84 1369.82L1389.01 1361.66M1392.61 1364.04L1391.07 1357.6M1391.07 1357.6L1390.14 1350.54M1391.07 1357.6L1389.01 1361.66M1390.14 1350.54L1385.04 1355.65L1382 1356.69L1382.93 1363.74L1389.01 1361.66M1390.14 1350.54L1398.33 1340.36M1398.33 1340.36L1408.52 1332.17M1408.52 1332.17L1411.65 1323.05L1421.85 1312.84L1430.09 1298.61L1440.37 1282.35L1445.56 1269.17L1446.63 1264.11L1443.61 1263.13M1408.52 1332.17L1413.15 1331.52L1426.85 1317.83L1436.06 1306.62L1448.33 1292.35L1450.4 1287.28M1443.61 1263.13L1447.74 1255.01L1455.05 1233.73L1455.16 1223.64M1461.08 1235.68L1460.99 1243.76L1458.79 1259.94L1455.66 1269.05L1452.48 1282.21L1450.4 1287.28M1461.08 1235.68L1458.13 1228.65L1456.11 1228.68L1455.16 1223.64M1461.08 1235.68L1466.12 1236.64L1470.06 1244.67L1471.99 1252.72L1471.85 1264.83L1470.79 1269.89L1467.7 1274.97L1462.58 1282.1L1456.47 1286.2L1450.4 1287.28M1284.55 1226.57L1269.85 1241.27M1284.55 1226.57L1293.53 1235.55M1307.73 1229.34L1311.81 1225.25L1334.2 1208.85L1370.75 1190.27M1307.73 1229.34L1287.29 1251.77L1259.64 1287.41L1247.34 1303.7L1246.37 1304.77M1127.76 1435.25L1131.85 1431.17L1146.16 1414.86L1155.35 1405.67L1167.65 1389.38L1194.19 1362.84M1127.76 1435.25L1124.75 1434.28L1122.77 1430.26M1246.37 1304.77L1227.92 1325.12L1207.48 1347.55L1195.21 1361.82L1194.19 1362.84M1128.35 1382.76L1128.31 1386.8L1125.25 1389.86L1126.2 1394.9L1130.21 1396.87L1135.23 1399.84M1128.35 1382.76L1259.02 1252.09M1135.23 1399.84L1133.16 1403.9L1131.08 1409.98L1127.99 1415.06L1124.88 1422.16L1122.77 1430.26M1135.23 1399.84L1142.37 1392.7L1149.57 1381.51L1163.88 1365.2L1180.24 1346.85L1192.51 1332.58L1210.91 1312.19L1268.08 1255.02L1272.14 1252.95L1276.13 1256.95L1272 1265.07L1240.28 1302.77L1228.01 1317.04L1213.7 1333.35L1195.3 1353.75L1185.07 1365.97L1171.8 1379.24L1154.42 1398.62L1122.77 1430.26M1122.77 1430.26L1105.42 1447.62L1099.32 1451.72L1094.23 1454.81L1087.16 1455.9L1082.12 1454.95M1082.12 1454.95L1089.34 1441.74L1089.38 1437.71L1082.26 1442.83L1078.15 1448.93L1076.09 1453L1075.95 1465.11L1078.88 1474.16L1082.8 1484.21L1088.2 1492.78M1082.12 1454.95L1081.03 1462.02L1080.99 1466.06L1082.91 1474.11L1085.84 1483.17L1088.2 1492.78M1259.02 1252.09L1269.85 1241.27M1259.02 1252.09L1246.96 1248.19L1248.02 1243.13L1257.16 1237.98L1268.23 1240.89L1269.85 1241.27M1259.02 1252.09L1264.06 1253.04L1272.23 1244.88M1269.85 1241.27L1276.29 1242.81M1276.29 1242.81L1283.34 1243.74M1276.29 1242.81L1272.23 1244.88M1283.34 1243.74L1278.24 1248.85L1277.19 1251.89L1270.14 1250.96L1272.23 1244.88M1283.34 1243.74L1293.53 1235.55M1293.53 1235.55L1301.72 1225.37M1301.72 1225.37L1310.84 1222.24L1321.05 1212.03L1335.27 1203.79L1351.53 1193.52L1364.72 1188.32L1369.77 1187.26L1370.75 1190.27M1301.72 1225.37L1302.36 1220.73L1316.06 1207.04L1327.26 1197.83L1341.53 1185.55L1346.6 1183.48M1370.75 1190.27L1378.87 1186.14L1400.15 1178.84L1410.24 1178.72M1398.2 1172.8L1390.12 1172.9L1373.95 1175.1L1364.83 1178.23L1351.67 1181.4L1346.6 1183.48M1398.2 1172.8L1405.23 1175.75L1405.21 1177.77L1410.24 1178.72M1398.2 1172.8L1397.25 1167.77L1389.22 1163.82L1381.16 1161.89L1369.05 1162.03L1363.99 1163.1L1358.91 1166.18L1351.79 1171.31L1347.68 1177.41L1346.6 1183.48" stroke="#00FFFF" stroke-width="5"/>
<path d="M986 381.436L1362.95 4L1542 183.282L986 740" stroke="#00FFFF" stroke-width="5"/>
<path d="M990 735.436L1367.63 358L1547 537.282L990 1094" stroke="#00FFFF" stroke-width="5"/>
<path d="M994 1094.44L1372.31 717L1552 896.282L994 1453" stroke="#00FFFF" stroke-width="5"/>
<path d="M1000 1448.44L1376.95 1071L1556 1250.28L1000 1807" stroke="#00FFFF" stroke-width="5"/>
<path d="M1376.95 1424L1556 1603.28L1000 2160" stroke="#00FFFF" stroke-width="5"/>
</svg>
