<svg width="1630" height="1532" viewBox="0 0 1630 1532" fill="none" xmlns="http://www.w3.org/2000/svg">
<path d="M663 817L622 738.077H646.6V655H679.4V738.077H704L663 817Z" stroke="#00FFFF" stroke-width="5"/>
<path d="M971.5 655L1012 733.923L987.7 733.923L987.7 817L955.3 817L955.3 733.923L931 733.923L971.5 655Z" stroke="#00FFFF" stroke-width="5"/>
<path d="M511 3H3V257.333M3 257.333H511M3 257.333V511.667M3 511.667H511M3 511.667V766M3 766H511M3 766V1020.33M3 1020.33H511M3 1020.33V1274.67M3 1274.67H511M3 1274.67V1529H511" stroke="#00FFFF" stroke-width="5"/>
<path d="M1119 3H1627V257.333M1627 257.333H1119M1627 257.333V511.667M1627 511.667H1119M1627 511.667V766M1627 766H1119M1627 766V1020.33M1627 1020.33H1119M1627 1020.33V1274.67M1627 1274.67H1119M1627 1274.67V1529H1119" stroke="#00FFFF" stroke-width="5"/>
<path d="M1456.6 1216.62L1535.45 1219.1L1550.47 1210.43L1565.49 1188.15L1578 1157.21L1578 1139.88M1456.6 1216.62L1438.58 1216.62M1456.6 1216.62L1456.6 1205.48M1578 1139.88L1570.49 1139.88M1578 1139.88L1578 1123.79L1565.49 1092.85L1550.47 1070.57L1535.45 1061.9L1456.6 1064.38M1570.49 1139.88L1569.24 1155.97L1565.49 1165.87L1562.98 1168.35M1570.49 1139.88L1569.24 1125.03L1565.49 1115.13L1562.98 1112.65M1469.12 1200.53L1474.13 1200.53L1497.9 1196.82L1531.69 1185.68M1469.12 1200.53L1442.84 1199.29L1404.04 1194.34L1386.52 1191.87L1385.27 1191.81M1469.12 1200.53L1480.38 1179.49L1485.39 1159.69L1487.89 1138.64L1485.39 1121.31L1480.38 1101.51L1469.12 1080.47M1232.59 1184.44L1237.59 1184.44L1256.37 1185.68L1267.63 1185.68L1285.15 1188.15L1317.69 1188.15M1232.59 1184.44L1227.58 1183.2L1217.57 1181.97L1207.56 1177.01L1198.8 1165.87L1195.04 1152.26L1192.54 1139.88L1195.04 1128.74L1198.8 1115.13L1207.56 1103.99L1217.57 1099.03L1227.58 1097.8L1232.59 1096.56M1232.59 1184.44L1231.34 1186.92L1232.59 1190.63M1385.27 1191.81L1361.49 1190.63L1335.21 1189.39L1318.94 1188.15L1317.69 1188.15M1385.27 1191.81L1387.77 1186.92L1389.02 1175.78L1391.53 1158.45L1392.78 1146.07L1391.53 1139.88L1392.78 1132.45L1391.53 1122.55L1389.02 1105.22L1387.77 1094.08L1385.27 1089.19M1317.69 1188.15L1318.94 1184.44L1318.94 1139.88L1318.94 1096.56L1317.69 1092.85M1265.13 1216.62L1211.31 1216.62L1205.05 1214.15L1196.29 1210.43L1185.03 1205.48L1176.27 1199.29L1173.77 1193.1L1168.76 1183.2L1165.01 1170.83L1161.25 1155.97L1160 1139.88L1161.25 1125.03L1165.01 1110.17L1168.76 1097.8L1173.77 1087.9L1176.27 1081.71L1185.03 1075.52L1196.29 1070.57L1205.05 1066.85L1211.31 1064.38L1265.13 1064.38M1265.13 1216.62L1262.62 1214.15L1258.87 1214.15L1256.37 1210.43L1257.62 1206.72L1258.87 1201.77M1265.13 1216.62L1425.32 1216.62M1258.87 1201.77L1255.11 1200.53L1250.11 1198.06L1245.1 1196.82L1238.84 1194.34L1232.59 1190.63M1258.87 1201.77L1267.63 1201.77L1278.89 1204.24L1297.66 1205.48L1318.94 1206.72L1335.21 1207.96L1358.99 1209.2L1429.07 1209.2L1432.83 1207.96L1432.83 1203.01L1425.32 1200.53L1382.77 1196.82L1366.5 1195.58L1347.72 1194.34L1323.95 1193.1L1310.18 1191.87L1293.91 1191.87L1271.38 1190.63L1232.59 1190.63M1232.59 1190.63L1211.31 1190.63L1205.05 1191.87L1200.05 1193.1L1195.04 1196.82L1192.54 1200.53M1192.54 1200.53L1205.05 1204.24L1207.56 1206.72L1200.05 1207.96L1193.79 1206.72L1190.04 1205.48L1182.53 1198.06L1178.77 1190.63L1175.02 1181.97L1173.07 1173.3M1192.54 1200.53L1187.53 1196.82L1185.03 1194.34L1181.28 1188.15L1177.52 1180.73L1173.07 1173.3M1166.26 1139.88L1167.51 1154.73L1172.51 1170.83L1173.07 1173.3M1166.26 1139.88L1167.51 1139.88M1166.26 1139.88L1167.51 1126.27L1172.51 1110.17L1173.07 1107.7M1425.32 1216.62L1438.58 1216.62M1425.32 1216.62L1420.31 1226.52L1424.07 1229L1432.83 1226.52L1437.83 1217.86L1438.58 1216.62M1425.32 1216.62L1427.82 1212.91L1437.83 1212.91M1438.58 1216.62L1441.59 1211.67M1441.59 1211.67L1445.34 1206.72M1441.59 1211.67L1437.83 1212.91M1445.34 1206.72L1439.08 1206.72L1436.58 1205.48L1432.83 1210.43L1437.83 1212.91M1445.34 1206.72L1456.6 1205.48M1456.6 1205.48L1467.87 1206.72M1467.87 1206.72L1475.38 1203.01L1487.89 1203.01L1501.66 1199.29L1517.93 1195.58L1529.19 1190.63L1532.95 1188.15L1531.69 1185.68M1467.87 1206.72L1471.11 1209.2L1487.89 1209.2L1500.41 1207.96L1516.68 1206.72L1521.06 1204.86M1531.69 1185.68L1539.2 1183.2L1556.72 1174.54L1562.98 1168.35M1559.23 1179.49L1554.22 1184.44L1542.96 1193.1L1535.45 1196.82L1525.44 1203.01L1521.06 1204.86M1559.23 1179.49L1561.73 1173.3L1560.48 1172.06L1562.98 1168.35M1559.23 1179.49L1561.73 1183.2L1559.23 1190.63L1555.47 1196.82L1547.96 1204.24L1544.21 1206.72L1539.2 1207.96L1531.69 1209.2L1525.44 1207.96L1521.06 1204.86M1456.6 1064.38L1438.58 1064.38M1456.6 1064.38L1456.6 1075.52M1469.12 1080.47L1474.13 1080.47L1497.9 1084.18L1531.69 1095.32M1469.12 1080.47L1442.84 1081.71L1404.04 1086.66L1386.52 1089.13L1385.27 1089.19M1232.59 1096.56L1237.59 1096.56L1256.37 1095.32L1267.63 1095.32L1285.15 1092.85L1317.69 1092.85M1232.59 1096.56L1231.34 1094.08L1232.59 1090.37M1385.27 1089.19L1361.49 1090.37L1335.21 1091.61L1318.94 1092.85L1317.69 1092.85M1265.13 1064.38L1262.62 1066.85L1258.87 1066.85L1256.37 1070.57L1257.62 1074.28L1258.87 1079.23M1265.13 1064.38L1425.32 1064.38M1258.87 1079.23L1255.11 1080.47L1250.11 1082.94L1245.1 1084.18L1238.84 1086.66L1232.59 1090.37M1258.87 1079.23L1267.63 1079.23L1278.89 1076.76L1297.66 1075.52L1318.94 1074.28L1335.21 1073.04L1358.99 1071.8L1429.07 1071.8L1432.83 1073.04L1432.83 1077.99L1425.32 1080.47L1382.77 1084.18L1366.5 1085.42L1347.72 1086.66L1323.95 1087.9L1310.18 1089.13L1293.91 1089.13L1271.38 1090.37L1232.59 1090.37M1232.59 1090.37L1211.31 1090.37L1205.05 1089.13L1200.05 1087.9L1195.04 1084.18L1192.54 1080.47M1192.54 1080.47L1205.05 1076.76L1207.56 1074.28L1200.05 1073.04L1193.79 1074.28L1190.04 1075.52L1182.53 1082.94L1178.77 1090.37L1175.02 1099.03L1173.07 1107.7M1192.54 1080.47L1187.53 1084.18L1185.03 1086.66L1181.28 1092.85L1177.52 1100.27L1173.07 1107.7M1425.32 1064.38L1438.58 1064.38M1425.32 1064.38L1420.31 1054.48L1424.07 1052L1432.83 1054.48L1437.83 1063.14L1438.58 1064.38M1425.32 1064.38L1427.82 1068.09L1437.83 1068.09M1438.58 1064.38L1441.59 1069.33M1441.59 1069.33L1445.34 1074.28M1441.59 1069.33L1437.83 1068.09M1445.34 1074.28L1439.08 1074.28L1436.58 1075.52L1432.83 1070.57L1437.83 1068.09M1445.34 1074.28L1456.6 1075.52M1456.6 1075.52L1467.87 1074.28M1467.87 1074.28L1475.38 1077.99L1487.89 1077.99L1501.66 1081.71L1517.93 1085.42L1529.19 1090.37L1532.95 1092.85L1531.69 1095.32M1467.87 1074.28L1471.11 1071.8L1487.89 1071.8L1500.41 1073.04L1516.68 1074.28L1521.06 1076.14M1531.69 1095.32L1539.2 1097.8L1556.72 1106.46L1562.98 1112.65M1559.23 1101.51L1554.22 1096.56L1542.96 1087.9L1535.45 1084.18L1525.44 1077.99L1521.06 1076.14M1559.23 1101.51L1561.73 1107.7L1560.48 1108.94L1562.98 1112.65M1559.23 1101.51L1561.73 1097.8L1559.23 1090.37L1555.47 1084.18L1547.96 1076.76L1544.21 1074.28L1539.2 1073.04L1531.69 1071.8L1525.44 1073.04L1521.06 1076.14" stroke="#00FFFF" stroke-width="5"/>
<path d="M165.266 460.832L85.8563 463.266L70.7305 454.748L55.6048 432.846L43 402.427L43 385.392M165.266 460.832L183.417 460.832M165.266 460.832L165.266 449.881M43 385.392L50.5629 385.392M43 385.392L43 369.573L55.6048 339.154L70.7305 317.252L85.8563 308.734L165.266 311.168M50.5629 385.392L51.8234 401.21L55.6048 410.944L58.1258 413.378M50.5629 385.392L51.8234 370.79L55.6048 361.056L58.1258 358.622M152.662 445.014L147.62 445.014L123.671 441.364L89.6377 430.413M152.662 445.014L179.132 443.797L218.207 438.93L235.853 436.497L237.114 436.436M152.662 445.014L141.317 424.329L136.275 404.86L133.754 384.175L136.275 367.14L141.317 347.671L152.662 326.986M390.892 429.196L385.85 429.196L366.943 430.413L355.599 430.413L337.952 432.846L305.18 432.846M390.892 429.196L395.934 427.979L406.018 426.762L416.102 421.895L424.925 410.944L428.707 397.559L431.228 385.392L428.707 374.441L424.925 361.056L416.102 350.105L406.018 345.238L395.934 344.021L390.892 342.804M390.892 429.196L392.153 431.629L390.892 435.28M237.114 436.436L261.063 435.28L287.533 434.063L303.919 432.846L305.18 432.846M237.114 436.436L234.593 431.629L233.332 420.678L230.811 403.643L229.551 391.476L230.811 385.392L229.551 378.091L230.811 368.357L233.332 351.322L234.593 340.371L237.114 335.564M305.18 432.846L303.919 429.196L303.919 385.392L303.919 342.804L305.18 339.154M358.12 460.832L412.32 460.832L418.623 458.399L427.446 454.748L438.79 449.881L447.614 443.797L450.135 437.713L455.177 427.979L458.958 415.811L462.74 401.21L464 385.392L462.74 370.79L458.958 356.189L455.177 344.021L450.135 334.287L447.614 328.203L438.79 322.119L427.446 317.252L418.623 313.601L412.32 311.168L358.12 311.168M358.12 460.832L360.641 458.399L364.422 458.399L366.943 454.748L365.683 451.098L364.422 446.231M358.12 460.832L196.778 460.832M364.422 446.231L368.204 445.014L373.246 442.58L378.287 441.364L384.59 438.93L390.892 435.28M364.422 446.231L355.599 446.231L344.255 448.664L325.347 449.881L303.919 451.098L287.533 452.315L263.584 453.531L192.997 453.531L189.216 452.315L189.216 447.448L196.778 445.014L239.635 441.364L256.021 440.147L274.928 438.93L298.877 437.713L312.743 436.497L329.129 436.497L351.817 435.28L390.892 435.28M390.892 435.28L412.32 435.28L418.623 436.497L423.665 437.713L428.707 441.364L431.228 445.014M431.228 445.014L418.623 448.664L416.102 451.098L423.665 452.315L429.967 451.098L433.749 449.881L441.311 442.58L445.093 435.28L448.874 426.762L450.835 418.245M431.228 445.014L436.269 441.364L438.79 438.93L442.572 432.846L446.353 425.545L450.835 418.245M457.698 385.392L456.437 399.993L451.395 415.811L450.835 418.245M457.698 385.392L456.437 385.392M457.698 385.392L456.437 372.007L451.395 356.189L450.835 353.755M196.778 460.832L183.417 460.832M196.778 460.832L201.82 470.566L198.039 473L189.216 470.566L184.174 462.049L183.417 460.832M196.778 460.832L194.257 457.182L184.174 457.182M183.417 460.832L180.392 455.965M180.392 455.965L176.611 451.098M180.392 455.965L184.174 457.182M176.611 451.098L182.913 451.098L185.434 449.881L189.216 454.748L184.174 457.182M176.611 451.098L165.266 449.881M165.266 449.881L153.922 451.098M153.922 451.098L146.359 447.448L133.754 447.448L119.889 443.797L103.503 440.147L92.1587 435.28L88.3772 432.846L89.6377 430.413M153.922 451.098L150.66 453.531L133.754 453.531L121.15 452.315L104.763 451.098L100.352 449.273M89.6377 430.413L82.0749 427.979L64.4281 419.462L58.1258 413.378M61.9072 424.329L66.9491 429.196L78.2934 437.713L85.8563 441.364L95.9401 447.448L100.352 449.273M61.9072 424.329L59.3862 418.245L60.6467 417.028L58.1258 413.378M61.9072 424.329L59.3862 427.979L61.9072 435.28L65.6886 441.364L73.2515 448.664L77.0329 451.098L82.0749 452.315L89.6377 453.531L95.9401 452.315L100.352 449.273M165.266 311.168L183.417 311.168M165.266 311.168L165.266 322.119M152.662 326.986L147.62 326.986L123.671 330.636L89.6377 341.587M152.662 326.986L179.132 328.203L218.207 333.07L235.853 335.503L237.114 335.564M390.892 342.804L385.85 342.804L366.943 341.587L355.599 341.587L337.952 339.154L305.18 339.154M390.892 342.804L392.153 340.371L390.892 336.72M237.114 335.564L261.063 336.72L287.533 337.937L303.919 339.154L305.18 339.154M358.12 311.168L360.641 313.601L364.422 313.601L366.943 317.252L365.683 320.902L364.422 325.769M358.12 311.168L196.778 311.168M364.422 325.769L368.204 326.986L373.246 329.42L378.287 330.636L384.59 333.07L390.892 336.72M364.422 325.769L355.599 325.769L344.255 323.336L325.347 322.119L303.919 320.902L287.533 319.685L263.584 318.469L192.997 318.469L189.216 319.685L189.216 324.552L196.778 326.986L239.635 330.636L256.021 331.853L274.928 333.07L298.877 334.287L312.743 335.504L329.129 335.504L351.817 336.72L390.892 336.72M390.892 336.72L412.32 336.72L418.623 335.504L423.665 334.287L428.707 330.636L431.228 326.986M431.228 326.986L418.623 323.336L416.102 320.902L423.665 319.685L429.967 320.902L433.749 322.119L441.311 329.42L445.093 336.72L448.874 345.238L450.835 353.755M431.228 326.986L436.269 330.636L438.79 333.07L442.572 339.154L446.353 346.455L450.835 353.755M196.778 311.168L183.417 311.168M196.778 311.168L201.82 301.434L198.039 299L189.216 301.434L184.174 309.951L183.417 311.168M196.778 311.168L194.257 314.818L184.174 314.818M183.417 311.168L180.392 316.035M180.392 316.035L176.611 320.902M180.392 316.035L184.174 314.818M176.611 320.902L182.913 320.902L185.434 322.119L189.216 317.252L184.174 314.818M176.611 320.902L165.266 322.119M165.266 322.119L153.922 320.902M153.922 320.902L146.359 324.552L133.755 324.552L119.889 328.203L103.503 331.853L92.1587 336.72L88.3773 339.154L89.6377 341.587M153.922 320.902L150.66 318.469L133.755 318.469L121.15 319.685L104.763 320.902L100.352 322.727M89.6377 341.587L82.0749 344.021L64.4281 352.538L58.1258 358.622M61.9072 347.671L66.9491 342.804L78.2934 334.287L85.8563 330.636L95.9401 324.552L100.352 322.727M61.9072 347.671L59.3862 353.755L60.6467 354.972L58.1258 358.622M61.9072 347.671L59.3862 344.021L61.9072 336.72L65.6886 330.636L73.2515 323.336L77.0329 320.902L82.0749 319.685L89.6377 318.469L95.9401 319.685L100.352 322.727" stroke="#00FFFF" stroke-width="5"/>
</svg>
